# xmcd
# 
# Track frame offsets:
#     150
#     13664
#     30208
#     46273
#     60709
#     74181
#     87110
#     102520
#     121438
#     134459
#     147098
#     158081
#     173656
#     189278
#     214513
# 
# Disc length: 3839
# 
# Revision: 0
# Processed by: cddbd v1.5.2PL0 Copyright (c) Steve Scherf et al.
# Submitted via: fre:ac v1.0.31
# 
DISCID=ca0efd0f
DTITLE=Papaslide - What Are We Livin' For?
DYEAR=2011
DGENRE=Blues
TTITLE0=Just Can't Stay
TTITLE1=You Gotta Tell
TTITLE2=What Are We Livin' For ...?
TTITLE3=Home Early
TTITLE4=Working Hard
TTITLE5=Guitar Mentor
TTITLE6=Don't Walk
TTITLE7=Remember
TTITLE8=You Keep Me Going
TTITLE9=Like It When
TTITLE10=Politician
TTITLE11=Papaslide
TTITLE12=Blues For Breakfast
TTITLE13=The Final Call
TTITLE14=What Are We Living For ...? (Video)
EXTD=
EXTT0=
EXTT1=
EXTT2=
EXTT3=
EXTT4=
EXTT5=
EXTT6=
EXTT7=
EXTT8=
EXTT9=
EXTT10=
EXTT11=
EXTT12=
EXTT13=
EXTT14=
PLAYORDER=
